<?xml version="1.0" standalone="no"?>
<!DOCTYPE svg PUBLIC "-//W3C//DTD SVG 20010904//EN"
 "http://www.w3.org/TR/2001/REC-SVG-20010904/DTD/svg10.dtd">
<svg version="1.0" xmlns="http://www.w3.org/2000/svg"
 width="600.000000pt" height="620.000000pt" viewBox="0 0 600.000000 620.000000"
 preserveAspectRatio="xMidYMid meet">
<metadata>
Created by potrace 1.16, written by Peter Selinger 2001-2019
</metadata>
<g transform="translate(0.000000,620.000000) scale(0.100000,-0.100000)"
fill="#000000" stroke="none">
<path d="M2989 5213 c-51 -8 -132 -66 -162 -114 -35 -57 -45 -138 -26 -206 17
-62 96 -143 155 -161 140 -41 276 27 320 161 48 146 -58 306 -212 320 -27 3
-61 3 -75 0z"/>
<path d="M2417 5112 c-26 -28 -20 -76 19 -176 62 -156 162 -322 274 -454 l62
-73 -35 -38 c-93 -103 -170 -249 -207 -391 -24 -89 -41 -350 -24 -349 5 0 22
27 38 60 73 156 241 352 397 464 108 78 246 147 367 185 l100 31 7 46 c12 80
63 208 166 415 57 115 99 212 99 229 0 66 -88 95 -129 43 -12 -15 -21 -35 -21
-44 0 -35 -80 -176 -129 -227 -126 -132 -295 -194 -444 -163 -182 37 -361 205
-407 380 -7 25 -19 53 -27 63 -22 23 -85 23 -106 -1z"/>
<path d="M2218 5045 c-34 -19 -45 -58 -29 -99 73 -179 73 -327 0 -483 -79
-168 -232 -257 -439 -256 -108 1 -189 23 -280 77 -75 45 -87 48 -120 31 -34
-17 -47 -55 -34 -93 26 -73 431 -236 665 -267 l46 -6 6 -112 c13 -242 97 -444
256 -617 28 -30 51 -52 51 -49 0 4 -9 42 -21 85 -29 112 -37 354 -16 490 28
174 96 351 193 503 l47 73 -33 67 c-47 95 -71 170 -130 409 -29 117 -60 221
-69 232 -22 26 -61 33 -93 15z"/>
<path d="M1833 4789 c-110 -21 -190 -109 -201 -222 -7 -70 14 -131 64 -186
122 -136 331 -103 410 64 84 178 -77 381 -273 344z"/>
<path d="M1226 4109 c-19 -15 -26 -30 -26 -55 0 -41 15 -57 100 -104 168 -94
283 -306 267 -497 -11 -136 -133 -306 -273 -380 -66 -35 -159 -63 -212 -63
-70 0 -108 -82 -59 -128 29 -27 52 -27 175 -1 178 38 428 141 530 217 l32 24
22 -28 c11 -16 56 -63 98 -105 134 -132 301 -218 495 -254 114 -22 130 -18 76
18 -115 76 -287 271 -369 417 -89 158 -162 396 -162 528 0 29 -5 35 -37 48
-97 38 -192 95 -329 196 -195 143 -262 188 -284 188 -9 0 -29 -9 -44 -21z"/>
<path d="M4747 4104 c-15 -8 -25 -19 -22 -23 2 -5 -3 -8 -13 -7 -9 0 -16 -5
-14 -12 1 -8 -2 -11 -7 -7 -19 11 -216 -129 -205 -147 3 -4 0 -7 -8 -6 -7 2
-12 -2 -11 -9 2 -8 -4 -10 -14 -6 -13 5 -15 2 -10 -11 4 -11 3 -15 -4 -10 -13
8 -60 -36 -52 -49 3 -6 1 -7 -4 -4 -13 8 -43 -24 -48 -50 -1 -10 -7 -17 -13
-16 -10 2 -82 -79 -82 -93 0 -4 7 1 16 12 15 18 15 18 5 -3 -14 -29 -41 -24
-121 22 -36 20 -75 38 -87 39 -12 0 -19 3 -17 5 6 7 -50 29 -115 46 -141 36
-329 38 -462 4 l-46 -12 111 -39 c61 -22 119 -40 128 -41 9 -1 15 -4 13 -8 -7
-10 45 -30 57 -23 7 5 8 2 3 -6 -6 -10 -4 -12 9 -7 9 4 15 3 12 -2 -6 -10 111
-88 125 -84 5 2 8 -1 6 -6 -3 -14 64 -62 76 -54 6 3 7 2 4 -4 -8 -12 126 -146
137 -136 4 4 4 0 1 -8 -3 -9 2 -22 11 -30 10 -8 15 -9 12 -4 -4 7 19 12 63 14
60 2 76 -1 114 -24 25 -14 45 -32 45 -40 0 -8 5 -15 10 -15 24 0 -11 -37 -45
-47 -32 -10 -38 -9 -60 13 -25 25 -50 31 -60 14 -3 -5 11 -38 32 -74 38 -65
51 -73 119 -79 18 -2 20 -6 13 -25 -10 -26 -3 -46 12 -37 5 4 9 101 9 225 0
242 -4 230 68 222 l32 -4 0 -116 0 -116 42 39 c36 35 38 36 21 10 -12 -16 -33
-41 -47 -54 l-26 -24 0 126 0 127 -40 0 -39 0 -1 -220 c0 -203 1 -220 18 -220
9 0 27 -3 39 -6 20 -6 22 -2 25 47 2 29 8 54 14 56 6 2 35 -26 63 -62 50 -63
53 -65 98 -65 43 0 45 1 31 18 -49 57 -128 162 -128 170 0 16 41 62 51 57 5
-4 -3 -16 -18 -29 l-27 -23 21 -26 c11 -15 23 -24 27 -22 3 3 4 2 1 -1 -2 -4
18 -35 45 -70 28 -35 50 -68 50 -73 0 -5 -15 -11 -32 -13 -24 -2 19 -18 155
-56 107 -30 196 -51 207 -47 33 10 50 34 50 69 0 43 -23 62 -85 71 -27 4 -76
15 -109 25 -33 11 -64 16 -69 13 -6 -3 -7 -1 -3 5 4 7 2 12 -4 12 -7 0 -25 9
-40 20 -16 11 -35 19 -42 18 -7 -2 -12 2 -11 9 3 14 -20 34 -44 37 -10 2 -18
7 -18 12 0 5 -13 27 -28 49 -62 89 -78 119 -97 175 -11 33 -20 79 -20 102 0
71 27 173 64 247 19 38 31 72 28 76 -4 4 0 5 8 3 9 -2 14 4 14 14 -1 10 2 16
6 13 10 -6 72 60 63 69 -5 4 -3 6 2 5 17 -5 56 21 49 33 -4 6 -3 8 3 5 17 -11
119 50 132 79 13 29 6 68 -11 58 -7 -5 -8 -2 -3 6 18 30 -60 40 -108 14z"/>
<path d="M1182 3711 c-122 -43 -188 -161 -162 -287 33 -157 206 -239 355 -169
87 41 134 120 134 225 1 170 -167 288 -327 231z"/>
<path d="M4737 3713 c-9 -2 -14 -9 -11 -15 4 -7 2 -8 -4 -4 -19 11 -52 -12
-46 -32 5 -14 4 -14 -4 -3 -9 12 -16 9 -41 -17 -46 -50 -65 -110 -59 -187 7
-87 26 -115 78 -115 45 0 46 -1 24 -35 -14 -22 -14 -24 6 -35 11 -6 26 -8 32
-4 7 4 8 3 4 -4 -7 -13 52 -32 99 -32 47 0 106 19 99 32 -4 7 -2 8 5 4 16 -10
64 22 55 36 -4 6 -3 8 3 5 14 -9 47 29 37 44 -5 8 -3 10 6 4 10 -6 12 -4 7 9
-4 10 -3 15 3 11 14 -9 33 74 28 126 -6 54 -39 124 -59 124 -8 1 -13 7 -11 14
3 16 -20 36 -73 61 -38 19 -131 25 -178 13z"/>
<path d="M3710 3385 c0 -4 13 -26 29 -49 88 -127 166 -328 198 -505 22 -124
13 -396 -16 -506 l-21 -80 59 -55 c78 -73 117 -124 250 -325 62 -93 124 -180
137 -192 33 -30 69 -29 99 2 36 35 32 68 -15 119 -100 108 -150 235 -150 380
0 152 32 236 125 328 129 128 301 179 495 147 82 -14 113 -8 128 26 17 37 15
50 -10 80 -20 21 -38 27 -128 41 -149 22 -376 20 -520 -5 -63 -11 -116 -18
-118 -16 -3 2 -14 32 -26 67 -44 125 -156 307 -185 300 -7 -1 -10 2 -7 7 11
18 -142 145 -234 194 -50 27 -90 46 -90 42z"/>
<path d="M1774 2866 c-67 -29 -189 -48 -430 -65 -138 -11 -261 -24 -272 -30
-45 -24 -39 -105 8 -128 20 -9 39 -8 90 4 123 29 284 3 399 -64 61 -35 147
-118 177 -168 61 -105 70 -298 20 -429 -26 -67 -93 -173 -135 -210 -46 -42
-10 -126 53 -126 20 0 39 12 67 43 54 58 138 177 193 273 47 81 136 289 136
318 0 25 12 26 106 9 111 -19 257 -13 375 17 86 21 294 116 322 148 15 16 9
17 -106 14 -326 -9 -658 117 -890 337 -41 39 -76 71 -78 71 -2 -1 -18 -7 -35
-14z"/>
<path d="M3325 2493 c-58 -51 -187 -148 -208 -156 -11 -4 -15 -12 -11 -18 4
-8 3 -9 -4 -5 -6 4 -46 -11 -89 -32 -186 -94 -357 -133 -584 -133 l-147 0 -40
-63 c-23 -34 -70 -94 -106 -133 -36 -39 -62 -74 -58 -78 4 -5 2 -5 -4 -2 -6 3
-73 -53 -148 -126 -120 -115 -138 -136 -138 -165 -1 -43 26 -72 69 -72 23 0
32 4 27 12 -4 7 -3 8 5 4 16 -10 51 34 46 59 -3 11 -2 14 1 7 4 -8 25 5 64 41
112 104 228 150 380 149 99 0 157 -14 210 -52 37 -26 48 -25 24 3 l-19 22 22
-19 c13 -10 20 -22 18 -26 -3 -4 2 -13 10 -20 12 -10 18 -10 30 0 12 10 18 10
30 0 8 -7 12 -16 9 -22 -3 -5 -2 -15 3 -21 4 -7 0 -4 -9 6 -10 11 -15 23 -12
28 3 5 1 9 -5 9 -5 0 -12 -4 -15 -8 -7 -11 49 -65 70 -68 9 -1 19 -6 22 -10 4
-4 -1 -4 -10 -1 -22 8 -22 3 -2 -28 9 -14 21 -22 27 -18 5 3 7 1 4 -4 -4 -6 5
-36 18 -66 34 -74 56 -183 53 -261 -4 -76 15 -106 67 -106 68 0 80 41 66 223
-12 161 -49 334 -98 467 -21 54 -32 95 -26 97 18 6 126 73 161 99 18 14 29 30
26 36 -5 7 -2 8 5 4 15 -10 53 23 44 38 -3 6 -3 8 2 4 11 -11 36 12 28 25 -3
5 -1 7 4 4 13 -8 37 18 29 31 -3 6 2 16 12 23 16 13 16 12 3 -6 -7 -11 -2 -7
13 8 14 16 24 33 20 38 -3 5 0 8 7 7 6 -2 14 3 17 11 3 9 0 11 -8 6 -9 -5 -11
-4 -6 4 4 6 11 9 16 6 11 -7 32 30 23 39 -3 3 -1 6 5 6 18 0 113 222 101 235
-2 1 -22 -13 -44 -32z"/>
<path d="M1390 2497 c-49 -15 -136 -104 -149 -153 -47 -169 63 -326 229 -327
72 -1 124 17 173 62 137 123 92 355 -80 417 -45 16 -124 16 -173 1z"/>
<path d="M4494 2487 c-237 -114 -157 -470 106 -470 211 0 324 242 189 406 -67
82 -198 110 -295 64z"/>
<path d="M2370 1709 c-57 -11 -116 -52 -154 -107 -25 -35 -31 -55 -34 -112 -5
-83 8 -124 54 -179 52 -61 105 -85 185 -84 53 0 76 6 119 29 75 41 130 132
130 216 0 70 -81 211 -111 192 -7 -4 -9 -3 -6 3 8 12 -50 38 -103 46 -19 2
-55 1 -80 -4z"/>
</g>
</svg>
